<?xml version="1.0" encoding="UTF-8"?>
<svg width="105px" height="42px" viewBox="0 0 105 42" version="1.1" xmlns="http://www.w3.org/2000/svg" xmlns:xlink="http://www.w3.org/1999/xlink">
    <!-- Generator: sketchtool 52.2 (67145) - http://www.bohemiancoding.com/sketch -->
    <title>E22FC621-B5CE-4E01-8541-30DF4552EF56</title>
    <desc>Created with sketchtool.</desc>
    <g id="Landingpage" stroke="none" stroke-width="1" fill="none" fill-rule="evenodd">
        <g id="Landingpage-NYP-mobile" transform="translate(-20.000000, -26.000000)" fill="#FFFFFF">
            <g id="Header">
                <g id="logo" transform="translate(20.000000, 26.000000)">
                    <g id="Group-52">
                        <path d="M16.2331244,32.4743922 C16.5536942,32.0130914 16.8938329,31.7355889 16.8618655,31.5114813 C16.8281056,31.2730849 16.4621242,30.9624927 16.2026509,30.9197769 C16.0363907,30.8922522 15.6444172,31.286772 15.6367988,31.5023064 C15.627836,31.7513817 15.9301814,32.0115873 16.2331244,32.4743922 M13.0885226,7.84977312 C12.7685502,8.26775647 12.4161624,8.52901487 12.4387188,8.75191927 C12.4636653,8.99918973 12.8275554,9.38603867 13.0498331,9.39025008 C13.2745009,9.39461191 13.6531796,9.02776722 13.6917197,8.78049675 C13.7259277,8.56060051 13.386536,8.2817444 13.0885226,7.84977312 M24.3290812,30.1307374 C23.8933393,29.8341332 23.6222143,29.5050409 23.3881356,29.5298581 C23.1440484,29.5558787 22.9358124,29.9231746 22.7120409,30.1411156 C22.9362606,30.3623655 23.1461397,30.737633 23.3890318,30.7607958 C23.6235587,30.7830562 23.8922936,30.4425328 24.3290812,30.1307374 M8.34196782,11.2876448 C8.03200398,11.7227747 7.69888621,11.9867404 7.72398208,12.2096448 C7.75221493,12.4588706 8.10534964,12.6707952 8.31702133,12.8989639 C8.54273476,12.6810229 8.91454199,12.4845903 8.95054261,12.2383727 C8.98325687,12.0157691 8.64924282,11.7387179 8.34196782,11.2876448 M21.7806556,6.77210104 C21.3783748,6.4697813 21.1192002,6.12369289 20.8809389,6.13768082 C20.6353579,6.15211997 20.4100926,6.51715977 20.1758645,6.72878358 C20.4063581,6.97078978 20.6089176,7.355533 20.8763081,7.40862696 C21.0839465,7.44983871 21.372549,7.0769777 21.7806556,6.77210104 M23.9082773,5.65637578 C23.9601122,5.62057871 24.0119471,5.58478165 24.063782,5.54883418 C24.0204618,5.29284006 24.0663215,4.93562147 23.9158957,4.80085605 C23.5534994,4.47627596 22.7383318,4.70775361 22.52188,5.21763614 C22.3980438,5.50957774 22.4969335,5.89883319 22.5090333,6.24371834 C22.5096308,6.25996239 22.6622973,6.30673922 22.7117422,6.27966581 C23.089674,6.07165179 23.2719178,6.30944656 23.5091335,6.55506254 C23.6232599,6.67313269 23.8937874,6.63793726 24.0935087,6.67223024 C24.1239823,6.45022829 24.1920996,6.22446614 24.1704395,6.00787887 C24.1580409,5.88304037 24.0004449,5.77309225 23.9082773,5.65637578 M11.7062188,20.2853351 C11.7580537,20.249538 11.8098886,20.2137409 11.8617235,20.1777935 C11.8184033,19.9217993 11.864263,19.5645807 11.7138372,19.4298153 C11.3514409,19.1052352 10.5362733,19.3367129 10.3198215,19.8465954 C10.1959853,20.138537 10.294875,20.5277925 10.3069748,20.8726776 C10.3075723,20.8889217 10.4602388,20.9356985 10.5096837,20.9086251 C10.8876155,20.7006111 11.0698593,20.9384058 11.307075,21.1840218 C11.4212014,21.302092 11.6917289,21.2668965 11.8914502,21.3011895 C11.9219237,21.0791876 11.9900411,20.8534254 11.968381,20.6368381 C11.9559824,20.5119996 11.7983864,20.4020515 11.7062188,20.2853351 M12.0513761,30.9584317 C12.5643476,31.0155867 13.0865806,30.5806072 13.1388637,30.0525253 C13.1884579,29.550464 12.728367,28.9846298 12.2062833,28.9826745 C11.6444645,28.9804183 11.271761,29.291913 11.1760083,29.8594017 C11.0865296,30.3900405 11.509873,30.8982686 12.0513761,30.9584317 M12.1036591,12.3216986 C12.1710296,12.2866536 12.5080312,12.2197221 12.5913854,12.0359238 C12.664731,11.8743858 12.5053424,11.541082 12.3585017,11.3563812 C12.067061,10.9899877 11.7303581,10.6547287 11.3811073,10.3418804 C10.9692662,9.9727796 10.6823069,10.0816749 10.5472672,10.6217894 C10.3263339,11.5064882 10.9753907,12.321097 12.1036591,12.3216986 M25.2083329,27.3560138 C25.2568814,27.4840109 25.3115546,27.7649727 25.4603372,27.9797551 C25.5899992,28.166712 25.8261692,28.3896164 26.0148364,28.3891652 C26.1634696,28.3888644 26.3636391,28.0954187 26.4495327,27.8928194 C26.6534366,27.4119655 26.8014723,26.9070465 26.9752015,26.4129567 C27.1575946,25.8946514 26.874818,25.7726706 26.4522215,25.8205003 C25.7886748,25.8957042 25.2229721,26.5463685 25.2083329,27.3560138 M21.7612362,9.67587455 C21.7188122,9.37174992 21.6763882,9.0676253 21.6290347,8.72860605 C20.9810236,8.76244781 20.4689484,8.83464357 20.4171135,9.59119494 C20.3412283,10.6997006 20.7240897,11.3276533 21.636205,11.4890409 C21.552104,10.7854331 22.039382,10.6968429 22.5554905,10.5993786 C23.0345527,10.5088331 23.5033077,10.3630879 24.0025362,10.2349404 C23.9321781,9.71483018 23.8688409,9.25052121 23.8069975,8.78591144 C23.8004248,8.73672808 23.8226825,8.6603209 23.7974372,8.64046707 C23.615044,8.49727881 23.4165178,8.24038225 23.2365147,8.25091079 C22.3185736,8.30430557 22.1511184,8.50750655 21.7612362,9.67587455 M19.6594573,27.5201088 C18.3864395,27.5357512 17.4906066,28.6224477 17.7194571,29.6888392 C17.8110271,30.1155462 18.0805089,30.3798128 18.4446978,30.1283309 C19.0098029,29.7383234 19.2116155,30.0603465 19.4843837,30.4640412 C19.8635106,31.0249119 20.3463073,31.1151566 20.7058653,30.7246979 C21.1068017,30.2891169 20.9190308,29.8906865 20.570975,29.550464 C20.242488,29.2294937 20.0642775,28.97365 20.5180944,28.5863498 C20.8682416,28.2876399 20.728123,27.9335799 20.3685649,27.7365456 C20.1174568,27.5989225 19.8109287,27.5635766 19.6594573,27.5201088 M22.4654329,14.2613519 C22.4810898,15.533195 23.5687899,16.4282012 24.6361663,16.199562 C25.0632674,16.1080764 25.3277781,15.8388433 25.0760639,15.4749905 C24.6856962,14.9104067 25.0080168,14.7087804 25.4120842,14.4362639 C25.973473,14.0574868 26.0638011,13.5751356 25.6729817,13.2159093 C25.2369984,12.8153429 24.8382001,13.0029405 24.4976633,13.3506752 C24.1763966,13.6788591 23.9203166,13.8569052 23.5326587,13.403507 C23.2336729,13.0536829 22.8792859,13.1936722 22.6820697,13.5528985 C22.5443194,13.8037749 22.5089409,14.1100201 22.4654329,14.2613519 M20.7434995,22.4310709 C21.4174005,22.4310709 21.9637053,21.8852702 21.9637053,21.211991 C21.9637053,20.5387117 21.4174005,19.992911 20.7434995,19.992911 C20.0695984,19.992911 19.5232936,20.5387117 19.5232936,21.211991 C19.5232936,21.8852702 20.0695984,22.4310709 20.7434995,22.4310709 Z M6.58911159,18.5300151 C7.26301268,18.5300151 7.80931744,17.9842144 7.80931744,17.3109351 C7.80931744,16.6376559 7.26301268,16.0918552 6.58911159,16.0918552 C5.91521051,16.0918552 5.36890574,16.6376559 5.36890574,17.3109351 C5.36890574,17.9842144 5.91521051,18.5300151 6.58911159,18.5300151 Z M15.8626761,17.0671192 C16.5365771,17.0671192 17.0828819,16.5213185 17.0828819,15.8480392 C17.0828819,15.17476 16.5365771,14.6289593 15.8626761,14.6289593 C15.188775,14.6289593 14.6424702,15.17476 14.6424702,15.8480392 C14.6424702,16.5213185 15.188775,17.0671192 15.8626761,17.0671192 Z M28.0647346,21.9434389 C28.7386356,21.9434389 29.2849404,21.3976382 29.2849404,20.724359 C29.2849404,20.0510797 28.7386356,19.505279 28.0647346,19.505279 C27.3908335,19.505279 26.8445287,20.0510797 26.8445287,20.724359 C26.8445287,21.3976382 27.3908335,21.9434389 28.0647346,21.9434389 Z M14.8865114,25.3568627 C15.290852,25.3568627 15.6186349,25.0293823 15.6186349,24.6254148 C15.6186349,24.2214472 15.290852,23.8939668 14.8865114,23.8939668 C14.4821707,23.8939668 14.1543879,24.2214472 14.1543879,24.6254148 C14.1543879,25.0293823 14.4821707,25.3568627 14.8865114,25.3568627 Z M2.18227671,20.0498032 C2.1898951,25.0624449 4.67647733,29.7944255 8.76127794,32.5375635 C9.11276947,32.7735533 9.54851141,33.2455331 9.91090769,32.7045162 C10.2768891,32.1583853 9.61603125,32.0108353 9.31503021,31.8019188 C2.86613911,27.3251802 1.17903953,18.6502584 5.49015109,12.078038 C5.62623642,11.8706256 5.78383249,11.6629124 5.85344365,11.4315851 C5.89258125,11.3011815 5.81609861,11.0420288 5.71272753,10.9844226 C5.5721608,10.9060602 5.30760853,10.8946292 5.18377237,10.9812641 C4.98957816,11.1172328 4.85453849,11.3499137 4.71845316,11.5574765 C3.02941163,14.1329097 2.17719779,16.9622313 2.18227671,20.0498032 M17.0778692,35.2548313 C18.0586994,35.1657898 18.8768546,35.111643 19.6891839,35.0102681 C20.1551006,34.9520603 20.6151916,34.8312828 21.0719961,34.7148672 C27.046157,33.19274 31.688295,27.8063349 32.2938822,21.6893989 C32.3295841,21.3290218 32.4329552,20.8457614 31.8974273,20.7973301 C31.3777337,20.7502525 31.3805719,21.2169679 31.3339653,21.5944916 C30.8256246,25.7078448 28.9586713,29.0465978 25.628838,31.4938835 C22.2298418,33.9921576 18.4305066,34.7281031 14.3094067,33.9377099 C14.012887,33.8808558 13.434487,34.0222391 13.3844447,34.1908463 C13.2166907,34.7571318 13.7725343,34.7983435 14.1320924,34.8573034 C15.1586329,35.0254593 16.1941362,35.1391676 17.0778692,35.2548313 M19.3152854,11.3547267 C19.2449273,10.8150634 19.2186364,10.3648928 19.116311,9.93277112 C19.0653723,9.7172367 18.9173366,9.42394144 18.7413668,9.35670914 C17.960706,9.05905205 18.0482428,8.47050622 18.1811911,7.86361064 C18.5607661,6.13181492 18.9636445,4.40498265 19.330074,2.67047959 C19.3783238,2.44231092 19.3577093,2.08810048 19.2166945,1.94957487 C18.4590383,1.20520654 19.0263841,0.0386434305 20.0587504,0.0048016694 C21.0367424,-0.02708479 22.040129,0.102717165 23.0013903,0.30862548 C24.9914329,0.73503167 26.8199955,1.57160001 28.4746796,2.77787078 C29.2653488,3.35423357 29.4619331,3.88066097 29.0814618,4.45025541 C28.7111484,5.00450825 28.0942083,4.99728868 27.2921862,4.59344366 C25.9414907,3.91344987 24.5628612,3.28594842 23.1697418,2.69935789 C22.9446258,2.60445055 22.5844703,2.83502575 22.2866062,2.91519313 C22.4987261,3.13734549 22.6732021,3.48238104 22.9290903,3.56194678 C24.5858657,4.077244 26.1291122,4.80777481 27.4995258,5.87852814 C27.7295713,6.05811508 28.0099579,6.39683351 27.9800818,6.62394933 C27.9522971,6.83557314 27.558531,7.12345372 27.2978626,7.15714507 C26.2931316,7.28664621 25.9465696,7.8590984 26.1304566,8.88217244 C26.0557665,8.87239594 25.9810765,8.86246902 25.9063864,8.85269251 C25.8458874,8.68408534 25.798982,8.50901063 25.7216031,8.34867588 C25.6237591,8.14607654 25.5274089,7.82209808 25.3825101,7.79306937 C25.1920504,7.75486578 24.8904519,7.89639955 24.7489889,8.05944163 C24.2143573,8.67581291 24.6737013,10.3665473 25.4978316,10.706469 C25.2812304,9.86222985 25.7713467,9.83290032 26.369913,9.87305921 C27.152217,9.92570195 27.786037,10.2826197 28.1804006,10.917792 C29.0069211,12.2492021 29.7596477,13.6270882 30.5359765,14.9897831 C30.6214219,15.1397397 30.62187,15.3573798 30.7348015,15.4679296 C30.8885136,15.6180366 31.1124345,15.6950454 31.30633,15.8034894 C31.3968543,15.599386 31.6088248,15.3546725 31.5572886,15.1979475 C31.3241062,14.4887746 31.0631391,13.7803537 30.7231498,13.1179577 C30.3476081,12.3865244 29.8860234,11.6984086 29.4416174,11.0045773 C29.0191703,10.3448886 29.0364984,9.70339918 29.5192951,9.32226575 C30.0013448,8.94173394 30.7648269,9.07303998 31.2229758,9.67948434 C32.799086,11.7657913 33.8289128,14.10719 34.3211205,16.6791638 C34.9313384,19.8673585 34.7008448,22.9926828 33.6408432,26.068974 C32.7642804,28.6131224 32.6673326,31.2664669 32.6924285,33.9291367 C32.7030345,35.0641141 32.5181019,35.3799706 31.8780079,35.4011781 C31.2051996,35.4234384 30.9721665,35.0435083 30.9711209,33.9238724 C30.9708221,33.5478528 31.0241508,33.1602519 30.9496101,32.7995739 C30.8962814,32.5413237 30.7209091,32.2206542 30.5071461,32.1108565 C30.3280393,32.0186565 29.9587715,32.1161207 29.769955,32.2587074 C28.4797585,33.2338013 27.2127159,34.2398793 25.9431339,35.2423474 C25.142755,35.8742107 24.7941017,36.7304825 24.7784168,37.7338531 C24.7654207,38.5610961 24.7879771,39.3889408 24.7661676,40.2157326 C24.7452544,41.009886 24.2829227,41.4690811 23.5747114,41.448024 C22.9235632,41.4287718 22.478261,40.9409992 22.4577959,40.2026472 C22.4446504,39.7266064 22.4607835,39.249964 22.4530157,38.7736224 C22.4343432,37.6234537 21.8217351,37.0619813 20.7013839,37.1868198 C20.01065,37.2638286 19.3221568,37.3640002 18.6350081,37.4701882 C17.5881519,37.632027 17.2501046,38.0363232 17.1268659,39.0846658 C17.0901184,39.3979653 16.9455184,39.7947411 16.713531,39.9690638 C16.1851734,40.3664413 15.5190872,39.9737264 15.4222889,39.273578 C15.2191319,37.8043943 14.8102783,37.3629474 13.350386,37.0350583 C13.2776379,37.0186639 13.2060848,36.9982084 13.1339341,36.9797082 C11.2203742,36.4883259 10.7783583,36.7951578 10.5738569,38.7563255 C10.5054407,39.4133069 10.0910602,39.7930866 9.43662567,39.7985013 C8.77576782,39.8037656 8.29565997,39.3784123 8.26951844,38.7012762 C8.24053869,37.9502899 8.26802464,37.1971979 8.25846431,36.4451588 C8.24128559,35.0841184 7.22490294,33.7865501 5.92619179,33.4666326 C5.46953663,33.3541276 5.14269282,33.5057386 5.01213456,33.9859908 C4.87082092,34.5054995 4.54173642,34.7419406 4.01128745,34.6363543 C3.50249861,34.5349794 3.44214903,34.139106 3.46425729,33.7120982 C3.57181101,31.6309051 2.76127423,29.8022467 1.9127949,27.9842673 C0.51235585,24.9837816 -0.232304273,21.8280749 0.0646634954,18.5186515 C0.767347792,10.6849607 6.43034985,4.62593175 13.2277449,3.13839834 C13.6884333,3.0376251 14.15435,2.8724773 14.6145903,2.88255463 C15.1141176,2.8935344 15.6587577,2.9839295 16.0879269,3.21781367 C16.3212587,3.34490829 16.5212788,3.89720583 16.4356839,4.15756178 C16.34023,4.44784888 15.9143471,4.80416503 15.6137943,4.82221397 C13.2262511,4.96540222 11.1294017,5.87521916 9.18163373,7.18933235 C8.95114013,7.34470364 8.6644796,7.80795974 8.73946844,7.9570139 C8.97115707,8.41726185 9.34341244,8.17390199 9.67667959,7.96152613 C11.3134381,6.91799663 13.0876263,6.23619795 15.0031281,5.92365048 C15.8233746,5.78978752 16.218037,6.214088 15.9972531,7.03727004 C15.809781,7.73681684 15.5937773,8.42884325 15.4176581,9.1310974 C15.0358424,10.6523222 16.1409569,11.9163495 17.6849502,11.7102908 C18.22003,11.6389975 18.7440556,11.4819717 19.3152854,11.3547267" id="Fill-4"></path>
                    </g>
                    <path d="M56.2190705,5.29150641 L54.6902244,17.6666667 L53.2463141,17.6666667 C53.0311421,17.6666667 52.8570252,17.6312771 52.7239583,17.5604968 C52.5908914,17.4897165 52.4649044,17.372223 52.3459936,17.2080128 L48.0227564,9.56378205 C48.0057691,9.8922025 47.9802886,10.186644 47.9463141,10.4471154 L47.0969551,17.6666667 L44.6508013,17.6666667 L46.1796474,5.29150641 L47.6405449,5.29150641 C47.7594557,5.29150641 47.8599622,5.29575316 47.9420673,5.30424679 C48.0241724,5.31274043 48.0963672,5.3325586 48.1586538,5.36370192 C48.2209405,5.39484524 48.2775638,5.43872835 48.3285256,5.49535256 C48.3794874,5.55197678 48.4332796,5.62558715 48.4899038,5.7161859 L52.8301282,13.3604167 C52.8471155,13.1622319 52.8641025,12.9725436 52.8810897,12.7913462 C52.898077,12.6101487 52.9178952,12.4402786 52.9405449,12.2817308 L53.7729167,5.29150641 L56.2190705,5.29150641 Z M63.1498397,12.91875 L62.5552885,17.6666667 L59.7863782,17.6666667 L60.3724359,12.9527244 L57.1873397,5.29150641 L59.6504808,5.29150641 C59.8883025,5.29150641 60.073744,5.34671419 60.2068109,5.45713141 C60.3398778,5.56754863 60.4375531,5.71335379 60.4998397,5.89455128 L61.6889423,9.64022436 C61.858815,10.1271926 61.9862175,10.5858419 62.0711538,11.0161859 C62.1787399,10.8010139 62.2976489,10.5815983 62.4278846,10.3579327 C62.5581203,10.134267 62.6968476,9.89503333 62.8440705,9.64022436 L64.9504808,5.89455128 C65.0467419,5.74732832 65.1741445,5.61001666 65.3326923,5.48261218 C65.4912401,5.3552077 65.6865907,5.29150641 65.91875,5.29150641 L68.2120192,5.29150641 L63.1498397,12.91875 Z M72.5182692,11.4153846 C72.9146387,11.4153846 73.247301,11.3573457 73.516266,11.241266 C73.785231,11.1251864 74.003231,10.9609786 74.1702724,10.7486378 C74.3373139,10.536297 74.4576385,10.2829075 74.53125,9.98846154 C74.6048615,9.69401562 74.6416667,9.37126244 74.6416667,9.02019231 C74.6416667,8.77670818 74.6091082,8.55304589 74.5439904,8.34919872 C74.4788725,8.14535154 74.3783661,7.96981911 74.2424679,7.82259615 C74.1065698,7.6753732 73.9352842,7.56071088 73.7286058,7.47860577 C73.5219274,7.39650066 73.2770313,7.35544872 72.9939103,7.35544872 L71.6858974,7.35544872 L71.1847756,11.4153846 L72.5182692,11.4153846 Z M73.2657051,5.29150641 C74.0018199,5.29150641 74.6317549,5.38068821 75.1555288,5.55905449 C75.6793028,5.73742076 76.1096404,5.9837324 76.4465545,6.29799679 C76.7834686,6.61226119 77.0311958,6.98314423 77.1897436,7.41065705 C77.3482914,7.83816987 77.4275641,8.29823472 77.4275641,8.79086538 C77.4275641,9.46469354 77.3242265,10.0889661 77.1175481,10.6637019 C76.9108697,11.2384377 76.5951944,11.7353077 76.1705128,12.1543269 C75.7458312,12.5733461 75.2079092,12.9017616 74.5567308,13.1395833 C73.9055523,13.377405 73.1354745,13.4963141 72.2464744,13.4963141 L70.9299679,13.4963141 L70.411859,17.6666667 L67.6599359,17.6666667 L69.1717949,5.29150641 L73.2657051,5.29150641 Z M50.0527244,29.1160256 C50.3641575,29.1160256 50.6345341,29.0919607 50.8638622,29.0438301 C51.0931902,28.9956995 51.2899564,28.9348294 51.4541667,28.8612179 C51.6183769,28.7876065 51.7571041,28.7069182 51.8703526,28.6191506 C51.983601,28.5313831 52.0855231,28.4506948 52.1761218,28.3770833 C52.2667205,28.3034719 52.3516556,28.2426017 52.4309295,28.1944712 C52.5102034,28.1463406 52.5951384,28.1222756 52.6857372,28.1222756 C52.7763359,28.1222756 52.8513619,28.1378471 52.9108173,28.1689904 C52.9702727,28.2001337 53.0141558,28.2355233 53.0424679,28.2751603 L54.0107372,29.4387821 C53.4728071,30.0786357 52.8343787,30.564181 52.0954327,30.8954327 C51.3564867,31.2266843 50.5170453,31.3923077 49.5770833,31.3923077 C48.7956692,31.3923077 48.1034485,31.254996 47.5004006,30.9803686 C46.8973528,30.7057411 46.389158,30.3277802 45.9758013,29.8464744 C45.5624445,29.3651685 45.2496004,28.7946881 45.0372596,28.135016 C44.8249188,27.4753439 44.71875,26.7633051 44.71875,25.9988782 C44.71875,25.2910755 44.7980227,24.6200886 44.9565705,23.9858974 C45.1151183,23.3517062 45.3387806,22.7656544 45.6275641,22.2277244 C45.9163476,21.6897943 46.2631657,21.2056645 46.6680288,20.7753205 C47.072892,20.3449765 47.5216322,19.9797558 48.0142628,19.6796474 C48.5068935,19.3795391 49.036322,19.1487989 49.6025641,18.9874199 C50.1688062,18.8260409 50.7605204,18.7453526 51.3777244,18.7453526 C51.8420429,18.7453526 52.2653026,18.7892357 52.647516,18.8770032 C53.0297295,18.9647707 53.375132,19.086511 53.683734,19.2422276 C53.9923359,19.3979442 54.2683749,19.5833857 54.511859,19.7985577 C54.7553431,20.0137297 54.9676807,20.2515478 55.1488782,20.5120192 L54.180609,21.6331731 C54.1126599,21.712447 54.0333872,21.7832262 53.9427885,21.8455128 C53.8521897,21.9077995 53.7332807,21.9389423 53.5860577,21.9389423 C53.4897965,21.9389423 53.4020303,21.916293 53.3227564,21.8709936 C53.2434825,21.8256942 53.1627942,21.7704864 53.0806891,21.7053686 C52.998584,21.6402507 52.906571,21.568056 52.8046474,21.4887821 C52.7027238,21.4095082 52.5809836,21.3373134 52.4394231,21.2721955 C52.2978625,21.2070777 52.129408,21.1518699 51.9340545,21.1065705 C51.7387009,21.0612711 51.5079607,21.0386218 51.2418269,21.0386218 C50.7208841,21.0386218 50.2353388,21.1490374 49.7851763,21.3698718 C49.3350138,21.5907062 48.9443126,21.9063815 48.6130609,22.3169071 C48.2818092,22.7274326 48.0227573,23.2257182 47.8358974,23.8117788 C47.6490375,24.3978395 47.555609,25.0532549 47.555609,25.7780449 C47.555609,26.3046501 47.6193103,26.774624 47.7467147,27.1879808 C47.8741192,27.6013375 48.0482361,27.9509868 48.2690705,28.2369391 C48.489905,28.5228914 48.7532036,28.7408913 49.0589744,28.8909455 C49.3647451,29.0409997 49.6959918,29.1160256 50.0527244,29.1160256 Z M58.3,29.4387821 C58.5944459,29.4387821 58.8577446,29.3496003 59.0899038,29.171234 C59.3220631,28.9928677 59.5188293,28.7493872 59.6802083,28.4407853 C59.8415873,28.1321833 59.9661587,27.7726249 60.0539263,27.3620994 C60.1416938,26.9515738 60.1855769,26.5141583 60.1855769,26.0498397 C60.1855769,25.4099861 60.0992263,24.9527524 59.9265224,24.678125 C59.7538186,24.4034976 59.4721173,24.2661859 59.0814103,24.2661859 C58.7869643,24.2661859 58.5236657,24.3553677 58.2915064,24.533734 C58.0593471,24.7121003 57.8625809,24.9541651 57.7012019,25.2599359 C57.5398229,25.5657067 57.4152515,25.925265 57.327484,26.3386218 C57.2397164,26.7519786 57.1958333,27.1908096 57.1958333,27.6551282 C57.1958333,28.283657 57.282184,28.7380595 57.4548878,29.0183494 C57.6275917,29.2986392 57.9092929,29.4387821 58.3,29.4387821 Z M58.0621795,31.3923077 C57.5695488,31.3923077 57.109484,31.3102038 56.6819712,31.1459936 C56.2544583,30.9817834 55.8835753,30.7425496 55.5693109,30.4282853 C55.2550465,30.1140209 55.0087349,29.7261508 54.8303686,29.2646635 C54.6520023,28.8031761 54.5628205,28.2723321 54.5628205,27.6721154 C54.5628205,26.8907012 54.6916387,26.1730001 54.9492788,25.5189904 C55.206919,24.8649807 55.5537371,24.3001626 55.9897436,23.8245192 C56.42575,23.3488758 56.9311136,22.9779928 57.5058494,22.711859 C58.0805851,22.4457252 58.6850396,22.3126603 59.3192308,22.3126603 C59.8118614,22.3126603 60.2705107,22.3947641 60.6951923,22.5589744 C61.1198739,22.7231846 61.4893414,22.9624183 61.8036058,23.2766827 C62.1178702,23.5909471 62.3655974,23.9788171 62.5467949,24.4403045 C62.7279924,24.9017918 62.8185897,25.4326359 62.8185897,26.0328526 C62.8185897,26.8029419 62.6897716,27.5149807 62.4321314,28.1689904 C62.1744912,28.8230001 61.8276731,29.3892337 61.3916667,29.8677083 C60.9556602,30.3461829 60.4502967,30.7198972 59.8755609,30.9888622 C59.3008251,31.2578272 58.6963707,31.3923077 58.0621795,31.3923077 Z M66.7511218,23.9689103 C67.1758034,23.4026681 67.640115,22.9850708 68.1440705,22.7161058 C68.648026,22.4471407 69.168961,22.3126603 69.706891,22.3126603 C70.069286,22.3126603 70.4019483,22.3862706 70.7048878,22.5334936 C71.0078274,22.6807165 71.2598013,22.8958853 71.4608173,23.1790064 C71.6618333,23.4621275 71.8048073,23.8117768 71.8897436,24.2279647 C71.9746799,24.6441527 71.9831734,25.1212046 71.9152244,25.6591346 L71.2527244,31.2564103 L68.6197115,31.2564103 L69.2822115,25.6591346 C69.3105236,25.4213129 69.3204327,25.2203 69.3119391,25.0560897 C69.3034455,24.8918795 69.2737182,24.7616458 69.2227564,24.6653846 C69.1717946,24.5691235 69.1010154,24.4997598 69.0104167,24.4572917 C68.9198179,24.4148235 68.8122335,24.3935897 68.6876603,24.3935897 C68.4951379,24.3935897 68.294125,24.4530443 68.0846154,24.5719551 C67.8751058,24.690866 67.6755084,24.8593205 67.4858173,25.0773237 C67.2961262,25.2953269 67.1220093,25.5586256 66.9634615,25.8672276 C66.8049137,26.1758295 66.6803423,26.5169853 66.5897436,26.8907051 L66.105609,31.2564103 L63.4725962,31.2564103 L64.5258013,22.4485577 L65.8847756,22.4485577 C66.1565719,22.4485577 66.3689095,22.512259 66.5217949,22.6396635 C66.6746803,22.7670679 66.7511218,22.9751588 66.7511218,23.2639423 L66.7511218,23.9689103 Z M76.1195513,23.9689103 C76.5442329,23.4026681 77.0085445,22.9850708 77.5125,22.7161058 C78.0164555,22.4471407 78.5373905,22.3126603 79.0753205,22.3126603 C79.4377155,22.3126603 79.7703778,22.3862706 80.0733173,22.5334936 C80.3762569,22.6807165 80.6282308,22.8958853 80.8292468,23.1790064 C81.0302628,23.4621275 81.1732368,23.8117768 81.2581731,24.2279647 C81.3431094,24.6441527 81.3516029,25.1212046 81.2836538,25.6591346 L80.6211538,31.2564103 L77.988141,31.2564103 L78.650641,25.6591346 C78.6789531,25.4213129 78.6888622,25.2203 78.6803686,25.0560897 C78.671875,24.8918795 78.6421477,24.7616458 78.5911859,24.6653846 C78.5402241,24.5691235 78.4694449,24.4997598 78.3788462,24.4572917 C78.2882474,24.4148235 78.180663,24.3935897 78.0560897,24.3935897 C77.8635674,24.3935897 77.6625545,24.4530443 77.4530449,24.5719551 C77.2435353,24.690866 77.0439379,24.8593205 76.8542468,25.0773237 C76.6645557,25.2953269 76.4904388,25.5586256 76.331891,25.8672276 C76.1733432,26.1758295 76.0487718,26.5169853 75.9581731,26.8907051 L75.4740385,31.2564103 L72.8410256,31.2564103 L73.8942308,22.4485577 L75.2532051,22.4485577 C75.5250014,22.4485577 75.737339,22.512259 75.8902244,22.6396635 C76.0431097,22.7670679 76.1195513,22.9751588 76.1195513,23.2639423 L76.1195513,23.9689103 Z M86.8894231,24.1048077 C86.4534166,24.1048077 86.0712089,24.2789245 85.7427885,24.6271635 C85.414368,24.9754024 85.1708875,25.4524542 85.0123397,26.0583333 C85.5559322,25.973397 85.9975945,25.8827996 86.3373397,25.7865385 C86.677085,25.6902773 86.9403837,25.5869397 87.1272436,25.4765224 C87.3141035,25.3661052 87.4400905,25.2486117 87.5052083,25.1240385 C87.5703262,24.9994652 87.6028846,24.8635691 87.6028846,24.7163462 C87.6028846,24.5691232 87.5462613,24.430396 87.4330128,24.3001603 C87.3197644,24.1699246 87.1385696,24.1048077 86.8894231,24.1048077 Z M89.7942308,29.625641 C89.4827976,29.9314118 89.178447,30.196126 88.8811699,30.4197917 C88.5838927,30.6434573 88.2781266,30.8274833 87.9638622,30.971875 C87.6495978,31.1162667 87.3155199,31.2224356 86.9616186,31.2903846 C86.6077172,31.3583337 86.2212628,31.3923077 85.8022436,31.3923077 C85.2813008,31.3923077 84.8028334,31.3031259 84.3668269,31.1247596 C83.9308205,30.9463933 83.5556907,30.6944194 83.2414263,30.3688301 C82.9271619,30.0432409 82.6836814,29.6511241 82.5109776,29.1924679 C82.3382737,28.7338118 82.2519231,28.2242015 82.2519231,27.6636218 C82.2519231,27.1936408 82.3042997,26.7349916 82.4090545,26.2876603 C82.5138093,25.840329 82.6638612,25.4199005 82.8592147,25.0263622 C83.0545683,24.6328239 83.293802,24.2704343 83.5769231,23.9391827 C83.8600442,23.607931 84.1785506,23.3233986 84.5324519,23.0855769 C84.8863533,22.8477552 85.2742233,22.6623137 85.6960737,22.5292468 C86.1179241,22.3961799 86.5666643,22.3296474 87.0423077,22.3296474 C87.5122887,22.3296474 87.929886,22.3975955 88.2951122,22.5334936 C88.6603384,22.6693917 88.9675201,22.8463397 89.2166667,23.0643429 C89.4658132,23.2823462 89.6555015,23.5272422 89.7857372,23.7990385 C89.9159729,24.0708347 89.9810897,24.3426268 89.9810897,24.6144231 C89.9810897,25.016455 89.901817,25.3830913 89.7432692,25.7143429 C89.5847214,26.0455946 89.3086825,26.3414517 88.9151442,26.6019231 C88.5216059,26.8623945 87.9921775,27.0832256 87.3268429,27.2644231 C86.6615084,27.4456206 85.8248982,27.587179 84.8169872,27.6891026 C84.828312,28.2893192 84.9599613,28.7281503 85.2119391,29.005609 C85.4639169,29.2830676 85.8362155,29.4217949 86.3288462,29.4217949 C86.5610054,29.4217949 86.7620184,29.4019767 86.931891,29.3623397 C87.1017637,29.3227028 87.2504,29.2717418 87.3778045,29.2094551 C87.505209,29.1471685 87.6198713,29.0820516 87.7217949,29.0141026 L88.0148237,28.81875 C88.1082537,28.7564634 88.205929,28.7055023 88.3078526,28.6658654 C88.4097762,28.6262284 88.525854,28.6064103 88.6560897,28.6064103 C88.7410261,28.6064103 88.8231299,28.627644 88.9024038,28.6701122 C88.9816777,28.7125803 89.052457,28.7677881 89.1147436,28.8357372 L89.7942308,29.625641 Z M97.574359,29.7105769 C97.2912379,30.0220101 97.0194457,30.2853088 96.7589744,30.5004808 C96.498503,30.7156528 96.229542,30.888354 95.9520833,31.0185897 C95.6746247,31.1488254 95.3787676,31.2436696 95.0645032,31.303125 C94.7502388,31.3625804 94.4034207,31.3923077 94.0240385,31.3923077 C93.5087581,31.3923077 93.0444465,31.3045415 92.6310897,31.1290064 C92.217733,30.9534713 91.8652525,30.7043285 91.5736378,30.3815705 C91.2820231,30.0588125 91.0569452,29.6681113 90.8983974,29.2094551 C90.7398496,28.750799 90.6605769,28.2355264 90.6605769,27.6636218 C90.6605769,26.9444943 90.7780704,26.2621827 91.0130609,25.6166667 C91.2480514,24.9711506 91.5764669,24.404917 91.9983173,23.9179487 C92.4201677,23.4309805 92.9198689,23.044526 93.4974359,22.7585737 C94.0750029,22.4726214 94.7091846,22.3296474 95.4,22.3296474 C95.9888918,22.3296474 96.4942554,22.4301539 96.9161058,22.6311699 C97.3379562,22.8321858 97.7159171,23.1478611 98.05,23.5782051 L97.200641,24.5549679 C97.1383544,24.6172546 97.0675752,24.6724624 96.9883013,24.7205929 C96.9090274,24.7687235 96.8212612,24.7927885 96.725,24.7927885 C96.6117516,24.7927885 96.5169074,24.7687235 96.4404647,24.7205929 C96.3640221,24.6724624 96.2805026,24.6215013 96.1899038,24.5677083 C96.0993051,24.5139153 95.9888895,24.4629543 95.8586538,24.4148237 C95.7284182,24.3666931 95.5585481,24.3426282 95.3490385,24.3426282 C95.0885671,24.3426282 94.8351775,24.4176542 94.5888622,24.5677083 C94.3425468,24.7177625 94.1231313,24.9343469 93.930609,25.2174679 C93.7380866,25.500589 93.583788,25.8488227 93.4677083,26.2621795 C93.3516287,26.6755363 93.2935897,27.1455102 93.2935897,27.6721154 C93.2935897,27.9665613 93.3275638,28.222782 93.3955128,28.4407853 C93.4634619,28.6587885 93.5568904,28.8399833 93.6758013,28.984375 C93.7947121,29.1287667 93.9334394,29.2377667 94.0919872,29.3113782 C94.250535,29.3849897 94.4204051,29.4217949 94.6016026,29.4217949 C94.8733988,29.4217949 95.0928143,29.3835741 95.2598558,29.3071314 C95.4268972,29.2306887 95.5727024,29.1471693 95.6972756,29.0565705 C95.8218489,28.9659718 95.9379268,28.8824523 96.0455128,28.8060096 C96.1530988,28.7295669 96.2833326,28.6913462 96.4362179,28.6913462 C96.5211543,28.6913462 96.6032582,28.7125799 96.6825321,28.7550481 C96.761806,28.7975162 96.8325852,28.8498929 96.8948718,28.9121795 L97.574359,29.7105769 Z M99.0777244,29.3538462 L99.0777244,29.2094551 C99.0777244,29.1528309 99.0819711,29.0721426 99.0904647,28.9673878 C99.0989584,28.862633 99.1131142,28.7239058 99.1329327,28.5512019 C99.1527512,28.3784981 99.1796473,28.150589 99.2136218,27.8674679 L99.6637821,24.2661859 L98.9588141,24.2661859 C98.8399033,24.2661859 98.7408124,24.2223028 98.6615385,24.1345353 C98.5822646,24.0467677 98.556784,23.9179496 98.5850962,23.7480769 L98.7040064,22.7203526 L100.0375,22.4485577 L100.776442,20.2996795 C100.872703,20.0278833 101.065223,19.8919872 101.354006,19.8919872 L102.780929,19.8919872 L102.458173,22.4655449 L104.428686,22.4655449 L104.207853,24.2661859 L102.23734,24.2661859 L101.81266,27.7230769 C101.784348,27.9552362 101.761699,28.1378466 101.744712,28.2709135 C101.727724,28.4039804 101.714984,28.5059024 101.70649,28.5766827 C101.697997,28.647463 101.69375,28.6955928 101.69375,28.7210737 L101.69375,28.7677885 C101.69375,28.9319987 101.731971,29.0693103 101.808413,29.1797276 C101.884856,29.2901448 102.005181,29.3453526 102.169391,29.3453526 C102.25999,29.3453526 102.335016,29.3354435 102.394471,29.315625 C102.453927,29.2958065 102.506303,29.2731572 102.551603,29.2476763 C102.596902,29.2221954 102.639369,29.199546 102.679006,29.1797276 C102.718643,29.1599091 102.763942,29.15 102.814904,29.15 C102.894178,29.15 102.952217,29.1684026 102.989022,29.2052083 C103.025828,29.2420141 103.064049,29.300053 103.103686,29.3793269 L103.68125,30.6278846 C103.33018,30.8826936 102.953634,31.0737974 102.551603,31.2012019 C102.149571,31.3286064 101.744714,31.3923077 101.337019,31.3923077 C100.997274,31.3923077 100.691508,31.3455934 100.419712,31.2521635 C100.147915,31.1587335 99.9143439,31.0228374 99.7189904,30.8444712 C99.5236368,30.6661049 99.3707538,30.4523517 99.2603365,30.2032051 C99.1499193,29.9540586 99.0890492,29.6709418 99.0777244,29.3538462 Z" id="NYP-Connect" transform="translate(74.539744, 18.341907) rotate(-5.000000) translate(-74.539744, -18.341907) "></path>
                </g>
            </g>
        </g>
    </g>
</svg>